<mxfile host="app.diagrams.net" modified="2023-12-06T08:51:43.384Z" agent="Mozilla/5.0 (Macintosh; Intel Mac OS X 10_15_7) AppleWebKit/537.36 (KHTML, like Gecko) Chrome/116.0.0.0 Safari/537.36" etag="rEEu7sRbruX4-3Kbi6t1" version="21.1.8" type="device">
  <diagram name="Страница 1" id="v-4OBDa3g8ti4X1HeZ94">
    <mxGraphModel dx="1363" dy="917" grid="1" gridSize="10" guides="1" tooltips="1" connect="1" arrows="1" fold="1" page="1" pageScale="1" pageWidth="1200" pageHeight="1920" math="0" shadow="0">
      <root>
        <mxCell id="0" />
        <mxCell id="1" parent="0" />
        <mxCell id="guEY1ZKLVSrb8ltvbtgd-1" value="ServiceType" style="swimlane;fontStyle=0;childLayout=stackLayout;horizontal=1;startSize=30;horizontalStack=0;resizeParent=1;resizeParentMax=0;resizeLast=0;collapsible=1;marginBottom=0;whiteSpace=wrap;html=1;" vertex="1" parent="1">
          <mxGeometry x="45" y="550" width="140" height="60" as="geometry" />
        </mxCell>
        <mxCell id="guEY1ZKLVSrb8ltvbtgd-2" value="name" style="text;strokeColor=none;fillColor=none;align=left;verticalAlign=middle;spacingLeft=4;spacingRight=4;overflow=hidden;points=[[0,0.5],[1,0.5]];portConstraint=eastwest;rotatable=0;whiteSpace=wrap;html=1;" vertex="1" parent="guEY1ZKLVSrb8ltvbtgd-1">
          <mxGeometry y="30" width="140" height="30" as="geometry" />
        </mxCell>
        <mxCell id="guEY1ZKLVSrb8ltvbtgd-9" value="SparePartType" style="swimlane;fontStyle=0;childLayout=stackLayout;horizontal=1;startSize=30;horizontalStack=0;resizeParent=1;resizeParentMax=0;resizeLast=0;collapsible=1;marginBottom=0;whiteSpace=wrap;html=1;" vertex="1" parent="1">
          <mxGeometry x="110" y="1150" width="140" height="60" as="geometry" />
        </mxCell>
        <mxCell id="guEY1ZKLVSrb8ltvbtgd-10" value="name" style="text;strokeColor=none;fillColor=none;align=left;verticalAlign=middle;spacingLeft=4;spacingRight=4;overflow=hidden;points=[[0,0.5],[1,0.5]];portConstraint=eastwest;rotatable=0;whiteSpace=wrap;html=1;" vertex="1" parent="guEY1ZKLVSrb8ltvbtgd-9">
          <mxGeometry y="30" width="140" height="30" as="geometry" />
        </mxCell>
        <mxCell id="guEY1ZKLVSrb8ltvbtgd-11" value="User" style="swimlane;fontStyle=0;childLayout=stackLayout;horizontal=1;startSize=30;horizontalStack=0;resizeParent=1;resizeParentMax=0;resizeLast=0;collapsible=1;marginBottom=0;whiteSpace=wrap;html=1;" vertex="1" parent="1">
          <mxGeometry x="850" y="780" width="140" height="180" as="geometry" />
        </mxCell>
        <mxCell id="guEY1ZKLVSrb8ltvbtgd-12" value="username" style="text;strokeColor=none;fillColor=none;align=left;verticalAlign=middle;spacingLeft=4;spacingRight=4;overflow=hidden;points=[[0,0.5],[1,0.5]];portConstraint=eastwest;rotatable=0;whiteSpace=wrap;html=1;" vertex="1" parent="guEY1ZKLVSrb8ltvbtgd-11">
          <mxGeometry y="30" width="140" height="30" as="geometry" />
        </mxCell>
        <mxCell id="guEY1ZKLVSrb8ltvbtgd-13" value="email" style="text;strokeColor=none;fillColor=none;align=left;verticalAlign=middle;spacingLeft=4;spacingRight=4;overflow=hidden;points=[[0,0.5],[1,0.5]];portConstraint=eastwest;rotatable=0;whiteSpace=wrap;html=1;" vertex="1" parent="guEY1ZKLVSrb8ltvbtgd-11">
          <mxGeometry y="60" width="140" height="30" as="geometry" />
        </mxCell>
        <mxCell id="guEY1ZKLVSrb8ltvbtgd-14" value="firstname" style="text;strokeColor=none;fillColor=none;align=left;verticalAlign=middle;spacingLeft=4;spacingRight=4;overflow=hidden;points=[[0,0.5],[1,0.5]];portConstraint=eastwest;rotatable=0;whiteSpace=wrap;html=1;" vertex="1" parent="guEY1ZKLVSrb8ltvbtgd-11">
          <mxGeometry y="90" width="140" height="30" as="geometry" />
        </mxCell>
        <mxCell id="guEY1ZKLVSrb8ltvbtgd-15" value="lastname" style="text;strokeColor=none;fillColor=none;align=left;verticalAlign=middle;spacingLeft=4;spacingRight=4;overflow=hidden;points=[[0,0.5],[1,0.5]];portConstraint=eastwest;rotatable=0;whiteSpace=wrap;html=1;" vertex="1" parent="guEY1ZKLVSrb8ltvbtgd-11">
          <mxGeometry y="120" width="140" height="30" as="geometry" />
        </mxCell>
        <mxCell id="guEY1ZKLVSrb8ltvbtgd-16" value="password" style="text;strokeColor=none;fillColor=none;align=left;verticalAlign=middle;spacingLeft=4;spacingRight=4;overflow=hidden;points=[[0,0.5],[1,0.5]];portConstraint=eastwest;rotatable=0;whiteSpace=wrap;html=1;" vertex="1" parent="guEY1ZKLVSrb8ltvbtgd-11">
          <mxGeometry y="150" width="140" height="30" as="geometry" />
        </mxCell>
        <mxCell id="guEY1ZKLVSrb8ltvbtgd-17" value="Employee" style="swimlane;fontStyle=0;childLayout=stackLayout;horizontal=1;startSize=30;horizontalStack=0;resizeParent=1;resizeParentMax=0;resizeLast=0;collapsible=1;marginBottom=0;whiteSpace=wrap;html=1;" vertex="1" parent="1">
          <mxGeometry x="580" y="930" width="140" height="90" as="geometry" />
        </mxCell>
        <mxCell id="guEY1ZKLVSrb8ltvbtgd-18" value="user" style="text;strokeColor=none;fillColor=none;align=left;verticalAlign=middle;spacingLeft=4;spacingRight=4;overflow=hidden;points=[[0,0.5],[1,0.5]];portConstraint=eastwest;rotatable=0;whiteSpace=wrap;html=1;" vertex="1" parent="guEY1ZKLVSrb8ltvbtgd-17">
          <mxGeometry y="30" width="140" height="30" as="geometry" />
        </mxCell>
        <mxCell id="guEY1ZKLVSrb8ltvbtgd-19" value="photo" style="text;strokeColor=none;fillColor=none;align=left;verticalAlign=middle;spacingLeft=4;spacingRight=4;overflow=hidden;points=[[0,0.5],[1,0.5]];portConstraint=eastwest;rotatable=0;whiteSpace=wrap;html=1;" vertex="1" parent="guEY1ZKLVSrb8ltvbtgd-17">
          <mxGeometry y="60" width="140" height="30" as="geometry" />
        </mxCell>
        <mxCell id="guEY1ZKLVSrb8ltvbtgd-21" value="SparePart" style="swimlane;fontStyle=0;childLayout=stackLayout;horizontal=1;startSize=30;horizontalStack=0;resizeParent=1;resizeParentMax=0;resizeLast=0;collapsible=1;marginBottom=0;whiteSpace=wrap;html=1;" vertex="1" parent="1">
          <mxGeometry x="350" y="1120" width="140" height="120" as="geometry" />
        </mxCell>
        <mxCell id="guEY1ZKLVSrb8ltvbtgd-22" value="type" style="text;strokeColor=none;fillColor=none;align=left;verticalAlign=middle;spacingLeft=4;spacingRight=4;overflow=hidden;points=[[0,0.5],[1,0.5]];portConstraint=eastwest;rotatable=0;whiteSpace=wrap;html=1;" vertex="1" parent="guEY1ZKLVSrb8ltvbtgd-21">
          <mxGeometry y="30" width="140" height="30" as="geometry" />
        </mxCell>
        <mxCell id="guEY1ZKLVSrb8ltvbtgd-23" value="name" style="text;strokeColor=none;fillColor=none;align=left;verticalAlign=middle;spacingLeft=4;spacingRight=4;overflow=hidden;points=[[0,0.5],[1,0.5]];portConstraint=eastwest;rotatable=0;whiteSpace=wrap;html=1;" vertex="1" parent="guEY1ZKLVSrb8ltvbtgd-21">
          <mxGeometry y="60" width="140" height="30" as="geometry" />
        </mxCell>
        <mxCell id="guEY1ZKLVSrb8ltvbtgd-24" value="price" style="text;strokeColor=none;fillColor=none;align=left;verticalAlign=middle;spacingLeft=4;spacingRight=4;overflow=hidden;points=[[0,0.5],[1,0.5]];portConstraint=eastwest;rotatable=0;whiteSpace=wrap;html=1;" vertex="1" parent="guEY1ZKLVSrb8ltvbtgd-21">
          <mxGeometry y="90" width="140" height="30" as="geometry" />
        </mxCell>
        <mxCell id="guEY1ZKLVSrb8ltvbtgd-25" value="Service" style="swimlane;fontStyle=0;childLayout=stackLayout;horizontal=1;startSize=30;horizontalStack=0;resizeParent=1;resizeParentMax=0;resizeLast=0;collapsible=1;marginBottom=0;whiteSpace=wrap;html=1;" vertex="1" parent="1">
          <mxGeometry x="45" y="700" width="140" height="150" as="geometry" />
        </mxCell>
        <mxCell id="guEY1ZKLVSrb8ltvbtgd-26" value="type" style="text;strokeColor=none;fillColor=none;align=left;verticalAlign=middle;spacingLeft=4;spacingRight=4;overflow=hidden;points=[[0,0.5],[1,0.5]];portConstraint=eastwest;rotatable=0;whiteSpace=wrap;html=1;" vertex="1" parent="guEY1ZKLVSrb8ltvbtgd-25">
          <mxGeometry y="30" width="140" height="30" as="geometry" />
        </mxCell>
        <mxCell id="guEY1ZKLVSrb8ltvbtgd-27" value="name" style="text;strokeColor=none;fillColor=none;align=left;verticalAlign=middle;spacingLeft=4;spacingRight=4;overflow=hidden;points=[[0,0.5],[1,0.5]];portConstraint=eastwest;rotatable=0;whiteSpace=wrap;html=1;" vertex="1" parent="guEY1ZKLVSrb8ltvbtgd-25">
          <mxGeometry y="60" width="140" height="30" as="geometry" />
        </mxCell>
        <mxCell id="guEY1ZKLVSrb8ltvbtgd-28" value="description" style="text;strokeColor=none;fillColor=none;align=left;verticalAlign=middle;spacingLeft=4;spacingRight=4;overflow=hidden;points=[[0,0.5],[1,0.5]];portConstraint=eastwest;rotatable=0;whiteSpace=wrap;html=1;" vertex="1" parent="guEY1ZKLVSrb8ltvbtgd-25">
          <mxGeometry y="90" width="140" height="30" as="geometry" />
        </mxCell>
        <mxCell id="guEY1ZKLVSrb8ltvbtgd-29" value="work_price" style="text;strokeColor=none;fillColor=none;align=left;verticalAlign=middle;spacingLeft=4;spacingRight=4;overflow=hidden;points=[[0,0.5],[1,0.5]];portConstraint=eastwest;rotatable=0;whiteSpace=wrap;html=1;" vertex="1" parent="guEY1ZKLVSrb8ltvbtgd-25">
          <mxGeometry y="120" width="140" height="30" as="geometry" />
        </mxCell>
        <mxCell id="guEY1ZKLVSrb8ltvbtgd-30" value="Device" style="swimlane;fontStyle=0;childLayout=stackLayout;horizontal=1;startSize=30;horizontalStack=0;resizeParent=1;resizeParentMax=0;resizeLast=0;collapsible=1;marginBottom=0;whiteSpace=wrap;html=1;" vertex="1" parent="1">
          <mxGeometry x="590" y="1100" width="140" height="90" as="geometry" />
        </mxCell>
        <mxCell id="guEY1ZKLVSrb8ltvbtgd-31" value="name" style="text;strokeColor=none;fillColor=none;align=left;verticalAlign=middle;spacingLeft=4;spacingRight=4;overflow=hidden;points=[[0,0.5],[1,0.5]];portConstraint=eastwest;rotatable=0;whiteSpace=wrap;html=1;" vertex="1" parent="guEY1ZKLVSrb8ltvbtgd-30">
          <mxGeometry y="30" width="140" height="30" as="geometry" />
        </mxCell>
        <mxCell id="guEY1ZKLVSrb8ltvbtgd-32" value="owner" style="text;strokeColor=none;fillColor=none;align=left;verticalAlign=middle;spacingLeft=4;spacingRight=4;overflow=hidden;points=[[0,0.5],[1,0.5]];portConstraint=eastwest;rotatable=0;whiteSpace=wrap;html=1;" vertex="1" parent="guEY1ZKLVSrb8ltvbtgd-30">
          <mxGeometry y="60" width="140" height="30" as="geometry" />
        </mxCell>
        <mxCell id="guEY1ZKLVSrb8ltvbtgd-34" value="Task" style="swimlane;fontStyle=0;childLayout=stackLayout;horizontal=1;startSize=30;horizontalStack=0;resizeParent=1;resizeParentMax=0;resizeLast=0;collapsible=1;marginBottom=0;whiteSpace=wrap;html=1;" vertex="1" parent="1">
          <mxGeometry x="250" y="900" width="140" height="150" as="geometry" />
        </mxCell>
        <mxCell id="guEY1ZKLVSrb8ltvbtgd-35" value="master" style="text;strokeColor=none;fillColor=none;align=left;verticalAlign=middle;spacingLeft=4;spacingRight=4;overflow=hidden;points=[[0,0.5],[1,0.5]];portConstraint=eastwest;rotatable=0;whiteSpace=wrap;html=1;" vertex="1" parent="guEY1ZKLVSrb8ltvbtgd-34">
          <mxGeometry y="30" width="140" height="30" as="geometry" />
        </mxCell>
        <mxCell id="guEY1ZKLVSrb8ltvbtgd-36" value="service" style="text;strokeColor=none;fillColor=none;align=left;verticalAlign=middle;spacingLeft=4;spacingRight=4;overflow=hidden;points=[[0,0.5],[1,0.5]];portConstraint=eastwest;rotatable=0;whiteSpace=wrap;html=1;" vertex="1" parent="guEY1ZKLVSrb8ltvbtgd-34">
          <mxGeometry y="60" width="140" height="30" as="geometry" />
        </mxCell>
        <mxCell id="guEY1ZKLVSrb8ltvbtgd-37" value="device" style="text;strokeColor=none;fillColor=none;align=left;verticalAlign=middle;spacingLeft=4;spacingRight=4;overflow=hidden;points=[[0,0.5],[1,0.5]];portConstraint=eastwest;rotatable=0;whiteSpace=wrap;html=1;" vertex="1" parent="guEY1ZKLVSrb8ltvbtgd-34">
          <mxGeometry y="90" width="140" height="30" as="geometry" />
        </mxCell>
        <mxCell id="guEY1ZKLVSrb8ltvbtgd-38" value="sp" style="text;strokeColor=none;fillColor=none;align=left;verticalAlign=middle;spacingLeft=4;spacingRight=4;overflow=hidden;points=[[0,0.5],[1,0.5]];portConstraint=eastwest;rotatable=0;whiteSpace=wrap;html=1;" vertex="1" parent="guEY1ZKLVSrb8ltvbtgd-34">
          <mxGeometry y="120" width="140" height="30" as="geometry" />
        </mxCell>
        <mxCell id="guEY1ZKLVSrb8ltvbtgd-39" value="Order" style="swimlane;fontStyle=0;childLayout=stackLayout;horizontal=1;startSize=30;horizontalStack=0;resizeParent=1;resizeParentMax=0;resizeLast=0;collapsible=1;marginBottom=0;whiteSpace=wrap;html=1;" vertex="1" parent="1">
          <mxGeometry x="490" y="720" width="140" height="150" as="geometry" />
        </mxCell>
        <mxCell id="guEY1ZKLVSrb8ltvbtgd-40" value="tasks" style="text;strokeColor=none;fillColor=none;align=left;verticalAlign=middle;spacingLeft=4;spacingRight=4;overflow=hidden;points=[[0,0.5],[1,0.5]];portConstraint=eastwest;rotatable=0;whiteSpace=wrap;html=1;" vertex="1" parent="guEY1ZKLVSrb8ltvbtgd-39">
          <mxGeometry y="30" width="140" height="30" as="geometry" />
        </mxCell>
        <mxCell id="guEY1ZKLVSrb8ltvbtgd-41" value="client" style="text;strokeColor=none;fillColor=none;align=left;verticalAlign=middle;spacingLeft=4;spacingRight=4;overflow=hidden;points=[[0,0.5],[1,0.5]];portConstraint=eastwest;rotatable=0;whiteSpace=wrap;html=1;" vertex="1" parent="guEY1ZKLVSrb8ltvbtgd-39">
          <mxGeometry y="60" width="140" height="30" as="geometry" />
        </mxCell>
        <mxCell id="guEY1ZKLVSrb8ltvbtgd-42" value="contractDate" style="text;strokeColor=none;fillColor=none;align=left;verticalAlign=middle;spacingLeft=4;spacingRight=4;overflow=hidden;points=[[0,0.5],[1,0.5]];portConstraint=eastwest;rotatable=0;whiteSpace=wrap;html=1;" vertex="1" parent="guEY1ZKLVSrb8ltvbtgd-39">
          <mxGeometry y="90" width="140" height="30" as="geometry" />
        </mxCell>
        <mxCell id="guEY1ZKLVSrb8ltvbtgd-43" value="deadline" style="text;strokeColor=none;fillColor=none;align=left;verticalAlign=middle;spacingLeft=4;spacingRight=4;overflow=hidden;points=[[0,0.5],[1,0.5]];portConstraint=eastwest;rotatable=0;whiteSpace=wrap;html=1;" vertex="1" parent="guEY1ZKLVSrb8ltvbtgd-39">
          <mxGeometry y="120" width="140" height="30" as="geometry" />
        </mxCell>
        <mxCell id="guEY1ZKLVSrb8ltvbtgd-44" value="Review" style="swimlane;fontStyle=0;childLayout=stackLayout;horizontal=1;startSize=30;horizontalStack=0;resizeParent=1;resizeParentMax=0;resizeLast=0;collapsible=1;marginBottom=0;whiteSpace=wrap;html=1;" vertex="1" parent="1">
          <mxGeometry x="490" y="500" width="140" height="180" as="geometry" />
        </mxCell>
        <mxCell id="guEY1ZKLVSrb8ltvbtgd-45" value="text" style="text;strokeColor=none;fillColor=none;align=left;verticalAlign=middle;spacingLeft=4;spacingRight=4;overflow=hidden;points=[[0,0.5],[1,0.5]];portConstraint=eastwest;rotatable=0;whiteSpace=wrap;html=1;" vertex="1" parent="guEY1ZKLVSrb8ltvbtgd-44">
          <mxGeometry y="30" width="140" height="30" as="geometry" />
        </mxCell>
        <mxCell id="guEY1ZKLVSrb8ltvbtgd-46" value="author" style="text;strokeColor=none;fillColor=none;align=left;verticalAlign=middle;spacingLeft=4;spacingRight=4;overflow=hidden;points=[[0,0.5],[1,0.5]];portConstraint=eastwest;rotatable=0;whiteSpace=wrap;html=1;" vertex="1" parent="guEY1ZKLVSrb8ltvbtgd-44">
          <mxGeometry y="60" width="140" height="30" as="geometry" />
        </mxCell>
        <mxCell id="guEY1ZKLVSrb8ltvbtgd-47" value="date" style="text;strokeColor=none;fillColor=none;align=left;verticalAlign=middle;spacingLeft=4;spacingRight=4;overflow=hidden;points=[[0,0.5],[1,0.5]];portConstraint=eastwest;rotatable=0;whiteSpace=wrap;html=1;" vertex="1" parent="guEY1ZKLVSrb8ltvbtgd-44">
          <mxGeometry y="90" width="140" height="30" as="geometry" />
        </mxCell>
        <mxCell id="guEY1ZKLVSrb8ltvbtgd-48" value="rate" style="text;strokeColor=none;fillColor=none;align=left;verticalAlign=middle;spacingLeft=4;spacingRight=4;overflow=hidden;points=[[0,0.5],[1,0.5]];portConstraint=eastwest;rotatable=0;whiteSpace=wrap;html=1;" vertex="1" parent="guEY1ZKLVSrb8ltvbtgd-44">
          <mxGeometry y="120" width="140" height="30" as="geometry" />
        </mxCell>
        <mxCell id="guEY1ZKLVSrb8ltvbtgd-49" value="service" style="text;strokeColor=none;fillColor=none;align=left;verticalAlign=middle;spacingLeft=4;spacingRight=4;overflow=hidden;points=[[0,0.5],[1,0.5]];portConstraint=eastwest;rotatable=0;whiteSpace=wrap;html=1;" vertex="1" parent="guEY1ZKLVSrb8ltvbtgd-44">
          <mxGeometry y="150" width="140" height="30" as="geometry" />
        </mxCell>
        <mxCell id="guEY1ZKLVSrb8ltvbtgd-60" style="edgeStyle=orthogonalEdgeStyle;rounded=0;orthogonalLoop=1;jettySize=auto;html=1;entryX=1;entryY=0.5;entryDx=0;entryDy=0;endArrow=none;endFill=0;" edge="1" parent="1" source="guEY1ZKLVSrb8ltvbtgd-36" target="guEY1ZKLVSrb8ltvbtgd-26">
          <mxGeometry relative="1" as="geometry" />
        </mxCell>
        <mxCell id="guEY1ZKLVSrb8ltvbtgd-62" style="edgeStyle=orthogonalEdgeStyle;rounded=0;orthogonalLoop=1;jettySize=auto;html=1;entryX=0.5;entryY=0;entryDx=0;entryDy=0;endArrow=none;endFill=0;" edge="1" parent="1" source="guEY1ZKLVSrb8ltvbtgd-40" target="guEY1ZKLVSrb8ltvbtgd-34">
          <mxGeometry relative="1" as="geometry" />
        </mxCell>
        <mxCell id="guEY1ZKLVSrb8ltvbtgd-64" style="edgeStyle=orthogonalEdgeStyle;rounded=0;orthogonalLoop=1;jettySize=auto;html=1;entryX=0.004;entryY=0.227;entryDx=0;entryDy=0;entryPerimeter=0;endArrow=none;endFill=0;" edge="1" parent="1" source="guEY1ZKLVSrb8ltvbtgd-18" target="guEY1ZKLVSrb8ltvbtgd-13">
          <mxGeometry relative="1" as="geometry">
            <Array as="points">
              <mxPoint x="760" y="975" />
              <mxPoint x="760" y="847" />
            </Array>
          </mxGeometry>
        </mxCell>
        <mxCell id="guEY1ZKLVSrb8ltvbtgd-69" style="edgeStyle=orthogonalEdgeStyle;rounded=0;orthogonalLoop=1;jettySize=auto;html=1;entryX=1;entryY=0.25;entryDx=0;entryDy=0;endArrow=none;endFill=0;" edge="1" parent="1" source="guEY1ZKLVSrb8ltvbtgd-22" target="guEY1ZKLVSrb8ltvbtgd-9">
          <mxGeometry relative="1" as="geometry" />
        </mxCell>
        <mxCell id="guEY1ZKLVSrb8ltvbtgd-70" style="edgeStyle=orthogonalEdgeStyle;rounded=0;orthogonalLoop=1;jettySize=auto;html=1;entryX=0;entryY=0.5;entryDx=0;entryDy=0;endArrow=none;endFill=0;" edge="1" parent="1" source="guEY1ZKLVSrb8ltvbtgd-26" target="guEY1ZKLVSrb8ltvbtgd-2">
          <mxGeometry relative="1" as="geometry">
            <Array as="points">
              <mxPoint x="15" y="745" />
              <mxPoint x="15" y="595" />
            </Array>
          </mxGeometry>
        </mxCell>
        <mxCell id="guEY1ZKLVSrb8ltvbtgd-85" value="inf" style="edgeLabel;html=1;align=center;verticalAlign=middle;resizable=0;points=[];" vertex="1" connectable="0" parent="guEY1ZKLVSrb8ltvbtgd-70">
          <mxGeometry x="-0.917" y="-5" relative="1" as="geometry">
            <mxPoint x="-11" y="-10" as="offset" />
          </mxGeometry>
        </mxCell>
        <mxCell id="guEY1ZKLVSrb8ltvbtgd-71" style="edgeStyle=orthogonalEdgeStyle;rounded=0;orthogonalLoop=1;jettySize=auto;html=1;endArrow=none;endFill=0;" edge="1" parent="1" source="guEY1ZKLVSrb8ltvbtgd-46" target="guEY1ZKLVSrb8ltvbtgd-11">
          <mxGeometry relative="1" as="geometry" />
        </mxCell>
        <mxCell id="guEY1ZKLVSrb8ltvbtgd-72" style="edgeStyle=orthogonalEdgeStyle;rounded=0;orthogonalLoop=1;jettySize=auto;html=1;endArrow=none;endFill=0;" edge="1" parent="1" source="guEY1ZKLVSrb8ltvbtgd-49" target="guEY1ZKLVSrb8ltvbtgd-25">
          <mxGeometry relative="1" as="geometry" />
        </mxCell>
        <mxCell id="guEY1ZKLVSrb8ltvbtgd-74" style="edgeStyle=orthogonalEdgeStyle;rounded=0;orthogonalLoop=1;jettySize=auto;html=1;entryX=0.5;entryY=0;entryDx=0;entryDy=0;endArrow=none;endFill=0;" edge="1" parent="1" source="guEY1ZKLVSrb8ltvbtgd-38" target="guEY1ZKLVSrb8ltvbtgd-21">
          <mxGeometry relative="1" as="geometry" />
        </mxCell>
        <mxCell id="guEY1ZKLVSrb8ltvbtgd-76" style="edgeStyle=orthogonalEdgeStyle;rounded=0;orthogonalLoop=1;jettySize=auto;html=1;entryX=-0.005;entryY=0.168;entryDx=0;entryDy=0;entryPerimeter=0;endArrow=none;endFill=0;" edge="1" parent="1" source="guEY1ZKLVSrb8ltvbtgd-35" target="guEY1ZKLVSrb8ltvbtgd-17">
          <mxGeometry relative="1" as="geometry">
            <mxPoint x="470" y="945.5" as="targetPoint" />
          </mxGeometry>
        </mxCell>
        <mxCell id="guEY1ZKLVSrb8ltvbtgd-77" style="edgeStyle=orthogonalEdgeStyle;rounded=0;orthogonalLoop=1;jettySize=auto;html=1;entryX=-0.001;entryY=0.083;entryDx=0;entryDy=0;entryPerimeter=0;endArrow=none;endFill=0;" edge="1" parent="1" source="guEY1ZKLVSrb8ltvbtgd-41" target="guEY1ZKLVSrb8ltvbtgd-11">
          <mxGeometry relative="1" as="geometry" />
        </mxCell>
        <mxCell id="guEY1ZKLVSrb8ltvbtgd-83" style="edgeStyle=orthogonalEdgeStyle;rounded=0;orthogonalLoop=1;jettySize=auto;html=1;entryX=0.5;entryY=0;entryDx=0;entryDy=0;endArrow=none;endFill=0;" edge="1" parent="1" source="guEY1ZKLVSrb8ltvbtgd-37" target="guEY1ZKLVSrb8ltvbtgd-30">
          <mxGeometry relative="1" as="geometry">
            <Array as="points">
              <mxPoint x="530" y="1005" />
              <mxPoint x="530" y="1050" />
              <mxPoint x="660" y="1050" />
            </Array>
          </mxGeometry>
        </mxCell>
        <mxCell id="guEY1ZKLVSrb8ltvbtgd-84" style="edgeStyle=orthogonalEdgeStyle;rounded=0;orthogonalLoop=1;jettySize=auto;html=1;entryX=0.499;entryY=0.995;entryDx=0;entryDy=0;entryPerimeter=0;endArrow=none;endFill=0;" edge="1" parent="1" source="guEY1ZKLVSrb8ltvbtgd-32" target="guEY1ZKLVSrb8ltvbtgd-16">
          <mxGeometry relative="1" as="geometry">
            <mxPoint x="890" y="990" as="targetPoint" />
            <Array as="points">
              <mxPoint x="920" y="1175" />
              <mxPoint x="920" y="990" />
            </Array>
          </mxGeometry>
        </mxCell>
        <mxCell id="guEY1ZKLVSrb8ltvbtgd-86" value="1" style="text;html=1;align=center;verticalAlign=middle;resizable=0;points=[];autosize=1;strokeColor=none;fillColor=none;" vertex="1" parent="1">
          <mxGeometry x="10" y="568" width="30" height="30" as="geometry" />
        </mxCell>
        <mxCell id="guEY1ZKLVSrb8ltvbtgd-87" value="1" style="text;html=1;align=center;verticalAlign=middle;resizable=0;points=[];autosize=1;strokeColor=none;fillColor=none;" vertex="1" parent="1">
          <mxGeometry x="110" y="668" width="30" height="30" as="geometry" />
        </mxCell>
        <mxCell id="guEY1ZKLVSrb8ltvbtgd-88" value="inf" style="text;html=1;align=center;verticalAlign=middle;resizable=0;points=[];autosize=1;strokeColor=none;fillColor=none;" vertex="1" parent="1">
          <mxGeometry x="450" y="638" width="40" height="30" as="geometry" />
        </mxCell>
        <mxCell id="guEY1ZKLVSrb8ltvbtgd-89" value="inf" style="text;html=1;align=center;verticalAlign=middle;resizable=0;points=[];autosize=1;strokeColor=none;fillColor=none;" vertex="1" parent="1">
          <mxGeometry x="310" y="1138" width="40" height="30" as="geometry" />
        </mxCell>
        <mxCell id="guEY1ZKLVSrb8ltvbtgd-90" value="1" style="text;html=1;align=center;verticalAlign=middle;resizable=0;points=[];autosize=1;strokeColor=none;fillColor=none;" vertex="1" parent="1">
          <mxGeometry x="250" y="1138" width="30" height="30" as="geometry" />
        </mxCell>
        <mxCell id="guEY1ZKLVSrb8ltvbtgd-91" value="inf" style="text;html=1;align=center;verticalAlign=middle;resizable=0;points=[];autosize=1;strokeColor=none;fillColor=none;" vertex="1" parent="1">
          <mxGeometry x="420" y="1090" width="40" height="30" as="geometry" />
        </mxCell>
        <mxCell id="guEY1ZKLVSrb8ltvbtgd-92" value="1" style="text;html=1;align=center;verticalAlign=middle;resizable=0;points=[];autosize=1;strokeColor=none;fillColor=none;" vertex="1" parent="1">
          <mxGeometry x="390" y="1008" width="30" height="30" as="geometry" />
        </mxCell>
        <mxCell id="guEY1ZKLVSrb8ltvbtgd-93" value="1" style="text;html=1;align=center;verticalAlign=middle;resizable=0;points=[];autosize=1;strokeColor=none;fillColor=none;" vertex="1" parent="1">
          <mxGeometry x="385" y="978" width="30" height="30" as="geometry" />
        </mxCell>
        <mxCell id="guEY1ZKLVSrb8ltvbtgd-94" value="inf" style="text;html=1;align=center;verticalAlign=middle;resizable=0;points=[];autosize=1;strokeColor=none;fillColor=none;" vertex="1" parent="1">
          <mxGeometry x="660" y="1070" width="40" height="30" as="geometry" />
        </mxCell>
        <mxCell id="guEY1ZKLVSrb8ltvbtgd-95" value="1" style="text;html=1;align=center;verticalAlign=middle;resizable=0;points=[];autosize=1;strokeColor=none;fillColor=none;" vertex="1" parent="1">
          <mxGeometry x="385" y="918" width="30" height="30" as="geometry" />
        </mxCell>
        <mxCell id="guEY1ZKLVSrb8ltvbtgd-96" value="inf" style="text;html=1;align=center;verticalAlign=middle;resizable=0;points=[];autosize=1;strokeColor=none;fillColor=none;" vertex="1" parent="1">
          <mxGeometry x="540" y="918" width="40" height="30" as="geometry" />
        </mxCell>
        <mxCell id="guEY1ZKLVSrb8ltvbtgd-97" value="inf" style="text;html=1;align=center;verticalAlign=middle;resizable=0;points=[];autosize=1;strokeColor=none;fillColor=none;" vertex="1" parent="1">
          <mxGeometry x="220" y="948" width="40" height="30" as="geometry" />
        </mxCell>
        <mxCell id="guEY1ZKLVSrb8ltvbtgd-98" value="1" style="text;html=1;align=center;verticalAlign=middle;resizable=0;points=[];autosize=1;strokeColor=none;fillColor=none;" vertex="1" parent="1">
          <mxGeometry x="185" y="718" width="30" height="30" as="geometry" />
        </mxCell>
        <mxCell id="guEY1ZKLVSrb8ltvbtgd-99" value="1" style="text;html=1;align=center;verticalAlign=middle;resizable=0;points=[];autosize=1;strokeColor=none;fillColor=none;" vertex="1" parent="1">
          <mxGeometry x="460" y="738" width="30" height="30" as="geometry" />
        </mxCell>
        <mxCell id="guEY1ZKLVSrb8ltvbtgd-100" value="inf" style="text;html=1;align=center;verticalAlign=middle;resizable=0;points=[];autosize=1;strokeColor=none;fillColor=none;" vertex="1" parent="1">
          <mxGeometry x="320" y="868" width="40" height="30" as="geometry" />
        </mxCell>
        <mxCell id="guEY1ZKLVSrb8ltvbtgd-101" value="inf" style="text;html=1;align=center;verticalAlign=middle;resizable=0;points=[];autosize=1;strokeColor=none;fillColor=none;" vertex="1" parent="1">
          <mxGeometry x="630" y="548" width="40" height="30" as="geometry" />
        </mxCell>
        <mxCell id="guEY1ZKLVSrb8ltvbtgd-102" value="1" style="text;html=1;align=center;verticalAlign=middle;resizable=0;points=[];autosize=1;strokeColor=none;fillColor=none;" vertex="1" parent="1">
          <mxGeometry x="915" y="748" width="30" height="30" as="geometry" />
        </mxCell>
        <mxCell id="guEY1ZKLVSrb8ltvbtgd-103" value="1" style="text;html=1;align=center;verticalAlign=middle;resizable=0;points=[];autosize=1;strokeColor=none;fillColor=none;" vertex="1" parent="1">
          <mxGeometry x="715" y="948" width="30" height="30" as="geometry" />
        </mxCell>
        <mxCell id="guEY1ZKLVSrb8ltvbtgd-104" value="1" style="text;html=1;align=center;verticalAlign=middle;resizable=0;points=[];autosize=1;strokeColor=none;fillColor=none;" vertex="1" parent="1">
          <mxGeometry x="815" y="818" width="30" height="30" as="geometry" />
        </mxCell>
        <mxCell id="guEY1ZKLVSrb8ltvbtgd-105" value="inf" style="text;html=1;align=center;verticalAlign=middle;resizable=0;points=[];autosize=1;strokeColor=none;fillColor=none;" vertex="1" parent="1">
          <mxGeometry x="630" y="768" width="40" height="30" as="geometry" />
        </mxCell>
        <mxCell id="guEY1ZKLVSrb8ltvbtgd-106" value="1" style="text;html=1;align=center;verticalAlign=middle;resizable=0;points=[];autosize=1;strokeColor=none;fillColor=none;" vertex="1" parent="1">
          <mxGeometry x="815" y="768" width="30" height="30" as="geometry" />
        </mxCell>
        <mxCell id="guEY1ZKLVSrb8ltvbtgd-107" value="inf" style="text;html=1;align=center;verticalAlign=middle;resizable=0;points=[];autosize=1;strokeColor=none;fillColor=none;" vertex="1" parent="1">
          <mxGeometry x="730" y="1150" width="40" height="30" as="geometry" />
        </mxCell>
        <mxCell id="guEY1ZKLVSrb8ltvbtgd-108" value="1" style="text;html=1;align=center;verticalAlign=middle;resizable=0;points=[];autosize=1;strokeColor=none;fillColor=none;" vertex="1" parent="1">
          <mxGeometry x="915" y="958" width="30" height="30" as="geometry" />
        </mxCell>
      </root>
    </mxGraphModel>
  </diagram>
</mxfile>
